<?xml version="1.0" encoding="UTF-8" standalone="no"?>
<!-- Created with Inkscape (http://www.inkscape.org/) -->

<svg
   xmlns:dc="http://purl.org/dc/elements/1.1/"
   xmlns:cc="http://creativecommons.org/ns#"
   xmlns:rdf="http://www.w3.org/1999/02/22-rdf-syntax-ns#"
   xmlns:svg="http://www.w3.org/2000/svg"
   xmlns="http://www.w3.org/2000/svg"
   xmlns:sodipodi="http://sodipodi.sourceforge.net/DTD/sodipodi-0.dtd"
   xmlns:inkscape="http://www.inkscape.org/namespaces/inkscape"
   width="210mm"
   height="297mm"
   id="svg2"
   version="1.1"
   inkscape:version="0.47 r22583"
   sodipodi:docname="dibujo.svg">
  <defs
     id="defs4">
    <inkscape:perspective
       sodipodi:type="inkscape:persp3d"
       inkscape:vp_x="0 : 526.18109 : 1"
       inkscape:vp_y="0 : 1000 : 0"
       inkscape:vp_z="744.09448 : 526.18109 : 1"
       inkscape:persp3d-origin="372.04724 : 350.78739 : 1"
       id="perspective10" />
  </defs>
  <sodipodi:namedview
     id="base"
     pagecolor="#ffffff"
     bordercolor="#666666"
     borderopacity="1.0"
     inkscape:pageopacity="0.0"
     inkscape:pageshadow="2"
     inkscape:zoom="2"
     inkscape:cx="344.60898"
     inkscape:cy="278.79863"
     inkscape:document-units="px"
     inkscape:current-layer="layer1"
     showgrid="false"
     inkscape:window-width="1280"
     inkscape:window-height="725"
     inkscape:window-x="0"
     inkscape:window-y="25"
     inkscape:window-maximized="1" />
  <metadata
     id="metadata7">
    <rdf:RDF>
      <cc:Work
         rdf:about="">
        <dc:format>image/svg+xml</dc:format>
        <dc:type
           rdf:resource="http://purl.org/dc/dcmitype/StillImage" />
        <dc:title></dc:title>
      </cc:Work>
    </rdf:RDF>
  </metadata>
  <g
     inkscape:label="Capa 1"
     inkscape:groupmode="layer"
     id="layer1">
    <path
       id="path3170"
       d="m 511.83107,746.83932 0,-1.41421 -4.11006,0 0,-4.11006 -1.43631,-0.0221 0,4.11005 -4.11006,0 0.0221,1.43631 4.11006,0 0,4.11006 1.41421,0 0,-4.11006 4.11006,0 z"
       style="fill:#ff0000;fill-opacity:1;stroke-width:2.5;stroke-miterlimit:4;stroke-dasharray:none"
       inkscape:export-filename="/home/david/UPC/LC2/Tasques complementaries/text2977.png"
       inkscape:export-xdpi="300"
       inkscape:export-ydpi="300" />
    <rect
       y="631.14795"
       x="400.35715"
       height="3.2142856"
       width="8.5714283"
       id="rect2879"
       style="fill:#000000;fill-opacity:1;stroke-width:2.5;stroke-miterlimit:4;stroke-dasharray:none"
       inkscape:export-filename="/home/david/UPC/LC2/Tasques complementaries/text2976.png"
       inkscape:export-xdpi="300"
       inkscape:export-ydpi="300" />
    <text
       id="text2881"
       y="636.50513"
       x="414.31635"
       style="font-size:10.08075809px;font-style:normal;font-weight:normal;fill:#000000;fill-opacity:1;stroke:none;font-family:Bitstream Vera Sans"
       xml:space="preserve"
       inkscape:export-filename="/home/david/UPC/LC2/Tasques complementaries/text2976.png"
       inkscape:export-xdpi="300"
       inkscape:export-ydpi="300"><tspan
         y="636.50513"
         x="414.31635"
         id="tspan2883"
         sodipodi:role="line">-V</tspan></text>
    <rect
       style="fill:#000000;fill-opacity:1;stroke-width:2.50000000000000000;stroke-miterlimit:4;stroke-dasharray:none"
       id="rect2877"
       width="8.5714283"
       height="3.2142856"
       x="400.35715"
       y="529.50507"
       inkscape:export-filename="/home/david/UPC/LC2/Tasques complementaries/text2976.png"
       inkscape:export-xdpi="300"
       inkscape:export-ydpi="300" />
    <rect
       style="fill:#000000;fill-opacity:1;stroke-width:2.5;stroke-miterlimit:4;stroke-dasharray:none"
       id="rect2824"
       width="1.0714285"
       height="133.21428"
       x="264.28571"
       y="515.57648"
       inkscape:export-filename="/home/david/UPC/LC2/Tasques complementaries/text2976.png"
       inkscape:export-xdpi="300"
       inkscape:export-ydpi="300" />
    <rect
       y="-331.42856"
       x="581.64789"
       height="133.21428"
       width="1.0714285"
       id="rect2826"
       style="fill:#000000;fill-opacity:1;stroke-width:2.5;stroke-miterlimit:4;stroke-dasharray:none"
       transform="matrix(0,1,-1,0,0,0)"
       inkscape:export-filename="/home/david/UPC/LC2/Tasques complementaries/text2976.png"
       inkscape:export-xdpi="300"
       inkscape:export-ydpi="300" />
    <rect
       y="515.57648"
       x="404.28571"
       height="133.21428"
       width="1.0714285"
       id="rect2841"
       style="fill:#000000;fill-opacity:1;stroke-width:2.5;stroke-miterlimit:4;stroke-dasharray:none"
       inkscape:export-filename="/home/david/UPC/LC2/Tasques complementaries/text2976.png"
       inkscape:export-xdpi="300"
       inkscape:export-ydpi="300" />
    <rect
       transform="matrix(0,1,-1,0,0,0)"
       style="fill:#000000;fill-opacity:1;stroke-width:2.5;stroke-miterlimit:4;stroke-dasharray:none"
       id="rect2843"
       width="1.0714285"
       height="133.21428"
       x="581.64789"
       y="-471.42856"
       inkscape:export-filename="/home/david/UPC/LC2/Tasques complementaries/text2976.png"
       inkscape:export-xdpi="300"
       inkscape:export-ydpi="300" />
    <path
       id="path2845"
       d="m 401.73661,526.83929 -1,1 2.90625,2.90625 -2.90625,2.90625 1,1.03125 2.90625,-2.90625 2.90625,2.90625 1,-1.03125 -2.90625,-2.90625 2.90625,-2.90625 -1,-1 -2.90625,2.90625 -2.90625,-2.90625 z"
       style="fill:#ff0000;fill-opacity:1;stroke-width:2.5;stroke-miterlimit:4;stroke-dasharray:none"
       inkscape:export-filename="/home/david/UPC/LC2/Tasques complementaries/text2976.png"
       inkscape:export-xdpi="300"
       inkscape:export-ydpi="300" />
    <path
       style="fill:#ff0000;fill-opacity:1;stroke-width:2.5;stroke-miterlimit:4;stroke-dasharray:none"
       d="m 401.73661,628.83929 -1,1 2.90625,2.90625 -2.90625,2.90625 1,1.03125 2.90625,-2.90625 2.90625,2.90625 1,-1.03125 -2.90625,-2.90625 2.90625,-2.90625 -1,-1 -2.90625,2.90625 -2.90625,-2.90625 z"
       id="path2847"
       inkscape:export-filename="/home/david/UPC/LC2/Tasques complementaries/text2976.png"
       inkscape:export-xdpi="300"
       inkscape:export-ydpi="300" />
    <path
       style="fill:#ff0000;fill-opacity:1;stroke-width:2.5;stroke-miterlimit:4;stroke-dasharray:none"
       d="m 401.73661,560.83929 -1,1 2.90625,2.90625 -2.90625,2.90625 1,1.03125 2.90625,-2.90625 2.90625,2.90625 1,-1.03125 -2.90625,-2.90625 2.90625,-2.90625 -1,-1 -2.90625,2.90625 -2.90625,-2.90625 z"
       id="path2849"
       inkscape:export-filename="/home/david/UPC/LC2/Tasques complementaries/text2976.png"
       inkscape:export-xdpi="300"
       inkscape:export-ydpi="300" />
    <path
       id="path2851"
       d="m 401.73661,594.83929 -1,1 2.90625,2.90625 -2.90625,2.90625 1,1.03125 2.90625,-2.90625 2.90625,2.90625 1,-1.03125 -2.90625,-2.90625 2.90625,-2.90625 -1,-1 -2.90625,2.90625 -2.90625,-2.90625 z"
       style="fill:#ff0000;fill-opacity:1;stroke-width:2.5;stroke-miterlimit:4;stroke-dasharray:none"
       inkscape:export-filename="/home/david/UPC/LC2/Tasques complementaries/text2976.png"
       inkscape:export-xdpi="300"
       inkscape:export-ydpi="300" />
    <rect
       y="-611.42859"
       x="581.64789"
       height="133.21428"
       width="1.0714285"
       id="rect2855"
       style="fill:#000000;fill-opacity:1;stroke-width:2.5;stroke-miterlimit:4;stroke-dasharray:none"
       transform="matrix(0,1,-1,0,0,0)"
       inkscape:export-filename="/home/david/UPC/LC2/Tasques complementaries/text2976.png"
       inkscape:export-xdpi="300"
       inkscape:export-ydpi="300" />
    <text
       xml:space="preserve"
       style="font-size:10.08075809px;font-style:normal;font-weight:normal;fill:#000000;fill-opacity:1;stroke:none;font-family:Bitstream Vera Sans"
       x="414.31635"
       y="534.86224"
       id="text2869"
       inkscape:export-filename="/home/david/UPC/LC2/Tasques complementaries/text2976.png"
       inkscape:export-xdpi="300"
       inkscape:export-ydpi="300"><tspan
         sodipodi:role="line"
         id="tspan2871"
         x="414.31635"
         y="534.86224">V</tspan></text>
    <rect
       style="fill:#000000;fill-opacity:1;stroke-width:2.5;stroke-miterlimit:4;stroke-dasharray:none"
       id="rect2885"
       width="8.5714283"
       height="3.2142856"
       x="540.35718"
       y="631.14795"
       inkscape:export-filename="/home/david/UPC/LC2/Tasques complementaries/text2976.png"
       inkscape:export-xdpi="300"
       inkscape:export-ydpi="300" />
    <text
       xml:space="preserve"
       style="font-size:10.08075809px;font-style:normal;font-weight:normal;fill:#000000;fill-opacity:1;stroke:none;font-family:Bitstream Vera Sans"
       x="554.31635"
       y="636.50513"
       id="text2887"
       inkscape:export-filename="/home/david/UPC/LC2/Tasques complementaries/text2976.png"
       inkscape:export-xdpi="300"
       inkscape:export-ydpi="300"><tspan
         sodipodi:role="line"
         id="tspan2889"
         x="554.31635"
         y="636.50513">-V</tspan></text>
    <rect
       y="529.50507"
       x="540.35718"
       height="3.2142856"
       width="8.5714283"
       id="rect2891"
       style="fill:#000000;fill-opacity:1;stroke-width:2.5;stroke-miterlimit:4;stroke-dasharray:none"
       inkscape:export-filename="/home/david/UPC/LC2/Tasques complementaries/text2976.png"
       inkscape:export-xdpi="300"
       inkscape:export-ydpi="300" />
    <rect
       style="fill:#000000;fill-opacity:1;stroke-width:2.5;stroke-miterlimit:4;stroke-dasharray:none"
       id="rect2893"
       width="1.0714285"
       height="133.21428"
       x="544.28571"
       y="515.57648"
       inkscape:export-filename="/home/david/UPC/LC2/Tasques complementaries/text2976.png"
       inkscape:export-xdpi="300"
       inkscape:export-ydpi="300" />
    <path
       style="fill:#ff0000;fill-opacity:1;stroke-width:2.5;stroke-miterlimit:4;stroke-dasharray:none"
       d="m 541.73661,526.83929 -1,1 2.90625,2.90625 -2.90625,2.90625 1,1.03125 2.90625,-2.90625 2.90625,2.90625 1,-1.03125 -2.90625,-2.90625 2.90625,-2.90625 -1,-1 -2.90625,2.90625 -2.90625,-2.90625 z"
       id="path2895"
       inkscape:export-filename="/home/david/UPC/LC2/Tasques complementaries/text2976.png"
       inkscape:export-xdpi="300"
       inkscape:export-ydpi="300" />
    <path
       id="path2897"
       d="m 541.73661,628.83929 -1,1 2.90625,2.90625 -2.90625,2.90625 1,1.03125 2.90625,-2.90625 2.90625,2.90625 1,-1.03125 -2.90625,-2.90625 2.90625,-2.90625 -1,-1 -2.90625,2.90625 -2.90625,-2.90625 z"
       style="fill:#ff0000;fill-opacity:1;stroke-width:2.5;stroke-miterlimit:4;stroke-dasharray:none"
       inkscape:export-filename="/home/david/UPC/LC2/Tasques complementaries/text2976.png"
       inkscape:export-xdpi="300"
       inkscape:export-ydpi="300" />
    <path
       id="path2899"
       d="m 541.73661,547.23929 -1,1 2.90625,2.90625 -2.90625,2.90625 1,1.03125 2.90625,-2.90625 2.90625,2.90625 1,-1.03125 -2.90625,-2.90625 2.90625,-2.90625 -1,-1 -2.90625,2.90625 -2.90625,-2.90625 z"
       style="fill:#ff0000;fill-opacity:1;stroke-width:2.5;stroke-miterlimit:4;stroke-dasharray:none"
       inkscape:export-filename="/home/david/UPC/LC2/Tasques complementaries/text2976.png"
       inkscape:export-xdpi="300"
       inkscape:export-ydpi="300" />
    <path
       style="fill:#ff0000;fill-opacity:1;stroke-width:2.5;stroke-miterlimit:4;stroke-dasharray:none"
       d="m 541.73661,608.43929 -1,1 2.90625,2.90625 -2.90625,2.90625 1,1.03125 2.90625,-2.90625 2.90625,2.90625 1,-1.03125 -2.90625,-2.90625 2.90625,-2.90625 -1,-1 -2.90625,2.90625 -2.90625,-2.90625 z"
       id="path2901"
       inkscape:export-filename="/home/david/UPC/LC2/Tasques complementaries/text2976.png"
       inkscape:export-xdpi="300"
       inkscape:export-ydpi="300" />
    <text
       id="text2903"
       y="534.86224"
       x="554.31635"
       style="font-size:10.08075809px;font-style:normal;font-weight:normal;fill:#000000;fill-opacity:1;stroke:none;font-family:Bitstream Vera Sans"
       xml:space="preserve"
       inkscape:export-filename="/home/david/UPC/LC2/Tasques complementaries/text2976.png"
       inkscape:export-xdpi="300"
       inkscape:export-ydpi="300"><tspan
         y="534.86224"
         x="554.31635"
         id="tspan2905"
         sodipodi:role="line">V</tspan></text>
    <path
       style="fill:#ff0000;fill-opacity:1;stroke-width:2.5;stroke-miterlimit:4;stroke-dasharray:none"
       d="m 541.73661,567.63929 -1,1 2.90625,2.90625 -2.90625,2.90625 1,1.03125 2.90625,-2.90625 2.90625,2.90625 1,-1.03125 -2.90625,-2.90625 2.90625,-2.90625 -1,-1 -2.90625,2.90625 -2.90625,-2.90625 z"
       id="path2907"
       inkscape:export-filename="/home/david/UPC/LC2/Tasques complementaries/text2976.png"
       inkscape:export-xdpi="300"
       inkscape:export-ydpi="300" />
    <path
       id="path2909"
       d="m 541.73661,588.03929 -1,1 2.90625,2.90625 -2.90625,2.90625 1,1.03125 2.90625,-2.90625 2.90625,2.90625 1,-1.03125 -2.90625,-2.90625 2.90625,-2.90625 -1,-1 -2.90625,2.90625 -2.90625,-2.90625 z"
       style="fill:#ff0000;fill-opacity:1;stroke-width:2.5;stroke-miterlimit:4;stroke-dasharray:none"
       inkscape:export-filename="/home/david/UPC/LC2/Tasques complementaries/text2976.png"
       inkscape:export-xdpi="300"
       inkscape:export-ydpi="300" />
    <rect
       style="fill:#000000;fill-opacity:1;stroke-width:2.5;stroke-miterlimit:4;stroke-dasharray:none"
       id="rect2911"
       width="8.5714283"
       height="3.2142856"
       x="260.35715"
       y="631.14795"
       inkscape:export-filename="/home/david/UPC/LC2/Tasques complementaries/text2976.png"
       inkscape:export-xdpi="300"
       inkscape:export-ydpi="300" />
    <text
       xml:space="preserve"
       style="font-size:10.08075809px;font-style:normal;font-weight:normal;fill:#000000;fill-opacity:1;stroke:none;font-family:Bitstream Vera Sans"
       x="274.31635"
       y="636.50513"
       id="text2913"
       inkscape:export-filename="/home/david/UPC/LC2/Tasques complementaries/text2976.png"
       inkscape:export-xdpi="300"
       inkscape:export-ydpi="300"><tspan
         sodipodi:role="line"
         id="tspan2915"
         x="274.31635"
         y="636.50513">-V</tspan></text>
    <rect
       y="529.50507"
       x="260.35715"
       height="3.2142856"
       width="8.5714283"
       id="rect2917"
       style="fill:#000000;fill-opacity:1;stroke-width:2.5;stroke-miterlimit:4;stroke-dasharray:none"
       inkscape:export-filename="/home/david/UPC/LC2/Tasques complementaries/text2976.png"
       inkscape:export-xdpi="300"
       inkscape:export-ydpi="300" />
    <path
       style="fill:#ff0000;fill-opacity:1;stroke-width:2.5;stroke-miterlimit:4;stroke-dasharray:none"
       d="m 261.73661,526.83929 -1,1 2.90625,2.90625 -2.90625,2.90625 1,1.03125 2.90625,-2.90625 2.90625,2.90625 1,-1.03125 -2.90625,-2.90625 2.90625,-2.90625 -1,-1 -2.90625,2.90625 -2.90625,-2.90625 z"
       id="path2919"
       inkscape:export-filename="/home/david/UPC/LC2/Tasques complementaries/text2976.png"
       inkscape:export-xdpi="300"
       inkscape:export-ydpi="300" />
    <path
       id="path2921"
       d="m 261.73661,628.83929 -1,1 2.90625,2.90625 -2.90625,2.90625 1,1.03125 2.90625,-2.90625 2.90625,2.90625 1,-1.03125 -2.90625,-2.90625 2.90625,-2.90625 -1,-1 -2.90625,2.90625 -2.90625,-2.90625 z"
       style="fill:#ff0000;fill-opacity:1;stroke-width:2.5;stroke-miterlimit:4;stroke-dasharray:none"
       inkscape:export-filename="/home/david/UPC/LC2/Tasques complementaries/text2976.png"
       inkscape:export-xdpi="300"
       inkscape:export-ydpi="300" />
    <text
       id="text2927"
       y="534.86224"
       x="274.31635"
       style="font-size:10.08075809px;font-style:normal;font-weight:normal;fill:#000000;fill-opacity:1;stroke:none;font-family:Bitstream Vera Sans"
       xml:space="preserve"
       inkscape:export-filename="/home/david/UPC/LC2/Tasques complementaries/text2976.png"
       inkscape:export-xdpi="300"
       inkscape:export-ydpi="300"><tspan
         y="534.86224"
         x="274.31635"
         id="tspan2929"
         sodipodi:role="line">V</tspan></text>
    <text
       id="text2952"
       y="568.86224"
       x="414.31635"
       style="font-size:10.08075809px;font-style:normal;font-weight:normal;fill:#000000;fill-opacity:1;stroke:none;font-family:Bitstream Vera Sans"
       xml:space="preserve"
       inkscape:export-filename="/home/david/UPC/LC2/Tasques complementaries/text2976.png"
       inkscape:export-xdpi="300"
       inkscape:export-ydpi="300"><tspan
         y="568.86224"
         x="414.31635"
         id="tspan2954"
         sodipodi:role="line">1/3 V</tspan></text>
    <text
       xml:space="preserve"
       style="font-size:10.08075809px;font-style:normal;font-weight:normal;fill:#000000;fill-opacity:1;stroke:none;font-family:Bitstream Vera Sans"
       x="414.31635"
       y="602.86224"
       id="text2956"
       inkscape:export-filename="/home/david/UPC/LC2/Tasques complementaries/text2976.png"
       inkscape:export-xdpi="300"
       inkscape:export-ydpi="300"><tspan
         sodipodi:role="line"
         id="tspan2958"
         x="414.31635"
         y="602.86224">-1/3 V</tspan></text>
    <text
       xml:space="preserve"
       style="font-size:10.08075809px;font-style:normal;font-weight:normal;fill:#000000;fill-opacity:1;stroke:none;font-family:Bitstream Vera Sans"
       x="554.31635"
       y="574.86224"
       id="text2960"
       inkscape:export-filename="/home/david/UPC/LC2/Tasques complementaries/text2976.png"
       inkscape:export-xdpi="300"
       inkscape:export-ydpi="300"><tspan
         sodipodi:role="line"
         id="tspan2962"
         x="554.31635"
         y="574.86224">1/5 V</tspan></text>
    <text
       id="text2964"
       y="554.86224"
       x="554.31635"
       style="font-size:10.08075809px;font-style:normal;font-weight:normal;fill:#000000;fill-opacity:1;stroke:none;font-family:Bitstream Vera Sans"
       xml:space="preserve"
       inkscape:export-filename="/home/david/UPC/LC2/Tasques complementaries/text2976.png"
       inkscape:export-xdpi="300"
       inkscape:export-ydpi="300"><tspan
         y="554.86224"
         x="554.31635"
         id="tspan2966"
         sodipodi:role="line">3/5 V</tspan></text>
    <text
       id="text2968"
       y="594.86224"
       x="554.31635"
       style="font-size:10.08075809px;font-style:normal;font-weight:normal;fill:#000000;fill-opacity:1;stroke:none;font-family:Bitstream Vera Sans"
       xml:space="preserve"
       inkscape:export-filename="/home/david/UPC/LC2/Tasques complementaries/text2976.png"
       inkscape:export-xdpi="300"
       inkscape:export-ydpi="300"><tspan
         y="607.4632"
         x="554.31635"
         sodipodi:role="line"
         id="tspan2972">-1/5 V</tspan></text>
    <text
       xml:space="preserve"
       style="font-size:10.08075809px;font-style:normal;font-weight:normal;fill:#000000;fill-opacity:1;stroke:none;font-family:Bitstream Vera Sans"
       x="554.31635"
       y="616.15509"
       id="text2976"
       inkscape:export-xdpi="300"
       inkscape:export-ydpi="300"><tspan
         sodipodi:role="line"
         id="tspan2978"
         x="554.31635"
         y="616.15509">-3/5 V</tspan></text>
    <rect
       inkscape:export-ydpi="300"
       inkscape:export-xdpi="300"
       inkscape:export-filename="/home/david/UPC/LC2/Tasques complementaries/text2977.png"
       y="-329.25"
       x="781.82648"
       height="133.21428"
       width="1.0714285"
       id="rect2988"
       style="fill:#000000;fill-opacity:1;stroke-width:2.5;stroke-miterlimit:4;stroke-dasharray:none"
       transform="matrix(0,1,-1,0,0,0)" />
    <rect
       inkscape:export-ydpi="300"
       inkscape:export-xdpi="300"
       inkscape:export-filename="/home/david/UPC/LC2/Tasques complementaries/text2977.png"
       style="fill:#000000;fill-opacity:1;stroke-width:2.5;stroke-miterlimit:4;stroke-dasharray:none"
       id="rect2990"
       width="1.0714285"
       height="133.21428"
       x="262.28571"
       y="715.57648" />
    <rect
       inkscape:export-ydpi="300"
       inkscape:export-xdpi="300"
       inkscape:export-filename="/home/david/UPC/LC2/Tasques complementaries/text2977.png"
       y="-213.67853"
       x="777.89789"
       height="3.2142856"
       width="8.5714283"
       id="rect3036"
       style="fill:#000000;fill-opacity:1;stroke-width:2.5;stroke-miterlimit:4;stroke-dasharray:none"
       transform="matrix(0,1,-1,0,0,0)" />
    <text
       inkscape:export-ydpi="300"
       inkscape:export-xdpi="300"
       inkscape:export-filename="/home/david/UPC/LC2/Tasques complementaries/text2977.png"
       id="text3038"
       y="799.00513"
       x="205.81635"
       style="font-size:10.08075809px;font-style:normal;font-weight:normal;fill:#000000;fill-opacity:1;stroke:none;font-family:Bitstream Vera Sans"
       xml:space="preserve"><tspan
         y="799.00513"
         x="205.81635"
         id="tspan3040"
         sodipodi:role="line">-V</tspan></text>
    <rect
       inkscape:export-ydpi="300"
       inkscape:export-xdpi="300"
       inkscape:export-filename="/home/david/UPC/LC2/Tasques complementaries/text2977.png"
       style="fill:#000000;fill-opacity:1;stroke-width:2.5;stroke-miterlimit:4;stroke-dasharray:none"
       id="rect3042"
       width="8.5714283"
       height="3.2142856"
       x="777.89789"
       y="-315.32141"
       transform="matrix(0,1,-1,0,0,0)" />
    <path
       inkscape:export-ydpi="300"
       inkscape:export-xdpi="300"
       inkscape:export-filename="/home/david/UPC/LC2/Tasques complementaries/text2977.png"
       id="path3044"
       d="m 317.98719,779.27737 -1,-1 -2.90625,2.90625 -2.90625,-2.90625 -1.03125,1 2.90625,2.90625 -2.90625,2.90625 1.03125,1 2.90625,-2.90625 2.90625,2.90625 1,-1 -2.90625,-2.90625 2.90625,-2.90625 z"
       style="fill:#ff0000;fill-opacity:1;stroke-width:2.5;stroke-miterlimit:4;stroke-dasharray:none" />
    <path
       inkscape:export-ydpi="300"
       inkscape:export-xdpi="300"
       inkscape:export-filename="/home/david/UPC/LC2/Tasques complementaries/text2977.png"
       style="fill:#ff0000;fill-opacity:1;stroke-width:2.5;stroke-miterlimit:4;stroke-dasharray:none"
       d="m 215.98719,779.27737 -1,-1 -2.90625,2.90625 -2.90625,-2.90625 -1.03125,1 2.90625,2.90625 -2.90625,2.90625 1.03125,1 2.90625,-2.90625 2.90625,2.90625 1,-1 -2.90625,-2.90625 2.90625,-2.90625 z"
       id="path3046" />
    <text
       inkscape:export-ydpi="300"
       inkscape:export-xdpi="300"
       inkscape:export-filename="/home/david/UPC/LC2/Tasques complementaries/text2977.png"
       xml:space="preserve"
       style="font-size:10.08075809px;font-style:normal;font-weight:normal;fill:#000000;fill-opacity:1;stroke:none;font-family:Bitstream Vera Sans"
       x="310.81635"
       y="799.36224"
       id="text3048"><tspan
         sodipodi:role="line"
         id="tspan3050"
         x="310.81635"
         y="799.36224">V</tspan></text>
    <rect
       transform="matrix(0,1,-1,0,0,0)"
       style="fill:#000000;fill-opacity:1;stroke-width:2.5;stroke-miterlimit:4;stroke-dasharray:none"
       id="rect3076"
       width="1.0714285"
       height="133.21428"
       x="781.82648"
       y="-469.25"
       inkscape:export-filename="/home/david/UPC/LC2/Tasques complementaries/text2977.png"
       inkscape:export-xdpi="300"
       inkscape:export-ydpi="300" />
    <rect
       y="715.57648"
       x="402.28571"
       height="133.21428"
       width="1.0714285"
       id="rect3078"
       style="fill:#000000;fill-opacity:1;stroke-width:2.5;stroke-miterlimit:4;stroke-dasharray:none"
       inkscape:export-filename="/home/david/UPC/LC2/Tasques complementaries/text2977.png"
       inkscape:export-xdpi="300"
       inkscape:export-ydpi="300" />
    <rect
       transform="matrix(0,1,-1,0,0,0)"
       style="fill:#000000;fill-opacity:1;stroke-width:2.5;stroke-miterlimit:4;stroke-dasharray:none"
       id="rect3080"
       width="8.5714283"
       height="3.2142856"
       x="777.89789"
       y="-353.67853"
       inkscape:export-filename="/home/david/UPC/LC2/Tasques complementaries/text2977.png"
       inkscape:export-xdpi="300"
       inkscape:export-ydpi="300" />
    <text
       xml:space="preserve"
       style="font-size:10.08075809px;font-style:normal;font-weight:normal;fill:#000000;fill-opacity:1;stroke:none;font-family:Bitstream Vera Sans"
       x="345.81635"
       y="799.00513"
       id="text3082"
       inkscape:export-filename="/home/david/UPC/LC2/Tasques complementaries/text2977.png"
       inkscape:export-xdpi="300"
       inkscape:export-ydpi="300"><tspan
         sodipodi:role="line"
         id="tspan3084"
         x="345.81635"
         y="799.00513">-V</tspan></text>
    <rect
       transform="matrix(0,1,-1,0,0,0)"
       y="-455.32141"
       x="777.89789"
       height="3.2142856"
       width="8.5714283"
       id="rect3086"
       style="fill:#000000;fill-opacity:1;stroke-width:2.5;stroke-miterlimit:4;stroke-dasharray:none"
       inkscape:export-filename="/home/david/UPC/LC2/Tasques complementaries/text2977.png"
       inkscape:export-xdpi="300"
       inkscape:export-ydpi="300" />
    <path
       style="fill:#ff0000;fill-opacity:1;stroke-width:2.5;stroke-miterlimit:4;stroke-dasharray:none"
       d="m 457.98719,779.27737 -1,-1 -2.90625,2.90625 -2.90625,-2.90625 -1.03125,1 2.90625,2.90625 -2.90625,2.90625 1.03125,1 2.90625,-2.90625 2.90625,2.90625 1,-1 -2.90625,-2.90625 2.90625,-2.90625 z"
       id="path3088"
       inkscape:export-filename="/home/david/UPC/LC2/Tasques complementaries/text2977.png"
       inkscape:export-xdpi="300"
       inkscape:export-ydpi="300" />
    <path
       id="path3090"
       d="m 355.98719,779.27737 -1,-1 -2.90625,2.90625 -2.90625,-2.90625 -1.03125,1 2.90625,2.90625 -2.90625,2.90625 1.03125,1 2.90625,-2.90625 2.90625,2.90625 1,-1 -2.90625,-2.90625 2.90625,-2.90625 z"
       style="fill:#ff0000;fill-opacity:1;stroke-width:2.5;stroke-miterlimit:4;stroke-dasharray:none"
       inkscape:export-filename="/home/david/UPC/LC2/Tasques complementaries/text2977.png"
       inkscape:export-xdpi="300"
       inkscape:export-ydpi="300" />
    <text
       id="text3092"
       y="799.36224"
       x="450.81635"
       style="font-size:10.08075809px;font-style:normal;font-weight:normal;fill:#000000;fill-opacity:1;stroke:none;font-family:Bitstream Vera Sans"
       xml:space="preserve"
       inkscape:export-filename="/home/david/UPC/LC2/Tasques complementaries/text2977.png"
       inkscape:export-xdpi="300"
       inkscape:export-ydpi="300"><tspan
         y="799.36224"
         x="450.81635"
         id="tspan3094"
         sodipodi:role="line">V</tspan></text>
    <rect
       inkscape:export-ydpi="300"
       inkscape:export-xdpi="300"
       inkscape:export-filename="/home/david/UPC/LC2/Tasques complementaries/text2977.png"
       y="831.57037"
       x="398.7796"
       height="3.2142856"
       width="8.5714283"
       id="rect3112"
       style="fill:#000000;fill-opacity:1;stroke-width:2.5;stroke-miterlimit:4;stroke-dasharray:none" />
    <rect
       inkscape:export-ydpi="300"
       inkscape:export-xdpi="300"
       inkscape:export-filename="/home/david/UPC/LC2/Tasques complementaries/text2977.png"
       style="fill:#000000;fill-opacity:1;stroke-width:2.5;stroke-miterlimit:4;stroke-dasharray:none"
       id="rect3114"
       width="8.5714283"
       height="3.2142856"
       x="398.7796"
       y="729.92749" />
    <path
       inkscape:export-ydpi="300"
       inkscape:export-xdpi="300"
       inkscape:export-filename="/home/david/UPC/LC2/Tasques complementaries/text2977.png"
       id="path3116"
       d="m 400.15908,727.26173 -1,1 2.90625,2.90625 -2.90625,2.90625 1,1.03125 2.90625,-2.90625 2.90625,2.90625 1,-1.03125 -2.90625,-2.90625 2.90625,-2.90625 -1,-1 -2.90625,2.90625 -2.90625,-2.90625 z"
       style="fill:#ff0000;fill-opacity:1;stroke-width:2.5;stroke-miterlimit:4;stroke-dasharray:none" />
    <path
       inkscape:export-ydpi="300"
       inkscape:export-xdpi="300"
       inkscape:export-filename="/home/david/UPC/LC2/Tasques complementaries/text2977.png"
       style="fill:#ff0000;fill-opacity:1;stroke-width:2.5;stroke-miterlimit:4;stroke-dasharray:none"
       d="m 400.15908,829.26173 -1,1 2.90625,2.90625 -2.90625,2.90625 1,1.03125 2.90625,-2.90625 2.90625,2.90625 1,-1.03125 -2.90625,-2.90625 2.90625,-2.90625 -1,-1 -2.90625,2.90625 -2.90625,-2.90625 z"
       id="path3118" />
    <text
       inkscape:export-ydpi="300"
       inkscape:export-xdpi="300"
       inkscape:export-filename="/home/david/UPC/LC2/Tasques complementaries/text2977.png"
       xml:space="preserve"
       style="font-size:10.08075809px;font-style:normal;font-weight:normal;fill:#000000;fill-opacity:1;stroke:none;font-family:Bitstream Vera Sans"
       x="413.81635"
       y="734.86224"
       id="text3120"><tspan
         sodipodi:role="line"
         id="tspan3122"
         x="413.81635"
         y="734.86224">V</tspan></text>
    <text
       id="text3124"
       y="836.36224"
       x="413.81635"
       style="font-size:10.08075809px;font-style:normal;font-weight:normal;fill:#000000;fill-opacity:1;stroke:none;font-family:Bitstream Vera Sans"
       xml:space="preserve"
       inkscape:export-filename="/home/david/UPC/LC2/Tasques complementaries/text2977.png"
       inkscape:export-xdpi="300"
       inkscape:export-ydpi="300"><tspan
         y="836.36224"
         x="413.81635"
         id="tspan3126"
         sodipodi:role="line">-V</tspan></text>
    <rect
       inkscape:export-ydpi="300"
       inkscape:export-xdpi="300"
       inkscape:export-filename="/home/david/UPC/LC2/Tasques complementaries/text2977.png"
       y="-609.25"
       x="781.82648"
       height="133.21428"
       width="1.0714285"
       id="rect3128"
       style="fill:#000000;fill-opacity:1;stroke-width:2.5;stroke-miterlimit:4;stroke-dasharray:none"
       transform="matrix(0,1,-1,0,0,0)" />
    <rect
       inkscape:export-ydpi="300"
       inkscape:export-xdpi="300"
       inkscape:export-filename="/home/david/UPC/LC2/Tasques complementaries/text2977.png"
       style="fill:#000000;fill-opacity:1;stroke-width:2.5;stroke-miterlimit:4;stroke-dasharray:none"
       id="rect3130"
       width="1.0714285"
       height="133.21428"
       x="542.28571"
       y="715.57648" />
    <rect
       inkscape:export-ydpi="300"
       inkscape:export-xdpi="300"
       inkscape:export-filename="/home/david/UPC/LC2/Tasques complementaries/text2977.png"
       y="-493.67853"
       x="777.89789"
       height="3.2142856"
       width="8.5714283"
       id="rect3132"
       style="fill:#000000;fill-opacity:1;stroke-width:2.5;stroke-miterlimit:4;stroke-dasharray:none"
       transform="matrix(0,1,-1,0,0,0)" />
    <text
       inkscape:export-ydpi="300"
       inkscape:export-xdpi="300"
       inkscape:export-filename="/home/david/UPC/LC2/Tasques complementaries/text2977.png"
       id="text3134"
       y="799.00513"
       x="485.81635"
       style="font-size:10.08075809px;font-style:normal;font-weight:normal;fill:#000000;fill-opacity:1;stroke:none;font-family:Bitstream Vera Sans"
       xml:space="preserve"><tspan
         y="799.00513"
         x="485.81635"
         id="tspan3136"
         sodipodi:role="line">-V</tspan></text>
    <rect
       inkscape:export-ydpi="300"
       inkscape:export-xdpi="300"
       inkscape:export-filename="/home/david/UPC/LC2/Tasques complementaries/text2977.png"
       style="fill:#000000;fill-opacity:1;stroke-width:2.5;stroke-miterlimit:4;stroke-dasharray:none"
       id="rect3138"
       width="8.5714283"
       height="3.2142856"
       x="777.89789"
       y="-595.32141"
       transform="matrix(0,1,-1,0,0,0)" />
    <path
       inkscape:export-ydpi="300"
       inkscape:export-xdpi="300"
       inkscape:export-filename="/home/david/UPC/LC2/Tasques complementaries/text2977.png"
       id="path3140"
       d="m 597.98719,779.27737 -1,-1 -2.90625,2.90625 -2.90625,-2.90625 -1.03125,1 2.90625,2.90625 -2.90625,2.90625 1.03125,1 2.90625,-2.90625 2.90625,2.90625 1,-1 -2.90625,-2.90625 2.90625,-2.90625 z"
       style="fill:#ff0000;fill-opacity:1;stroke-width:2.5;stroke-miterlimit:4;stroke-dasharray:none" />
    <path
       inkscape:export-ydpi="300"
       inkscape:export-xdpi="300"
       inkscape:export-filename="/home/david/UPC/LC2/Tasques complementaries/text2977.png"
       style="fill:#ff0000;fill-opacity:1;stroke-width:2.5;stroke-miterlimit:4;stroke-dasharray:none"
       d="m 495.98719,779.27737 -1,-1 -2.90625,2.90625 -2.90625,-2.90625 -1.03125,1 2.90625,2.90625 -2.90625,2.90625 1.03125,1 2.90625,-2.90625 2.90625,2.90625 1,-1 -2.90625,-2.90625 2.90625,-2.90625 z"
       id="path3142" />
    <text
       inkscape:export-ydpi="300"
       inkscape:export-xdpi="300"
       inkscape:export-filename="/home/david/UPC/LC2/Tasques complementaries/text2977.png"
       xml:space="preserve"
       style="font-size:10.08075809px;font-style:normal;font-weight:normal;fill:#000000;fill-opacity:1;stroke:none;font-family:Bitstream Vera Sans"
       x="590.81635"
       y="799.36224"
       id="text3144"><tspan
         sodipodi:role="line"
         id="tspan3146"
         x="590.81635"
         y="799.36224">V</tspan></text>
    <rect
       style="fill:#000000;fill-opacity:1;stroke-width:2.5;stroke-miterlimit:4;stroke-dasharray:none"
       id="rect3148"
       width="8.5714283"
       height="3.2142856"
       x="538.7796"
       y="831.57037"
       inkscape:export-filename="/home/david/UPC/LC2/Tasques complementaries/text2977.png"
       inkscape:export-xdpi="300"
       inkscape:export-ydpi="300" />
    <rect
       y="729.92749"
       x="538.7796"
       height="3.2142856"
       width="8.5714283"
       id="rect3150"
       style="fill:#000000;fill-opacity:1;stroke-width:2.5;stroke-miterlimit:4;stroke-dasharray:none"
       inkscape:export-filename="/home/david/UPC/LC2/Tasques complementaries/text2977.png"
       inkscape:export-xdpi="300"
       inkscape:export-ydpi="300" />
    <path
       style="fill:#ff0000;fill-opacity:1;stroke-width:2.5;stroke-miterlimit:4;stroke-dasharray:none"
       d="m 540.15908,727.26173 -1,1 2.90625,2.90625 -2.90625,2.90625 1,1.03125 2.90625,-2.90625 2.90625,2.90625 1,-1.03125 -2.90625,-2.90625 2.90625,-2.90625 -1,-1 -2.90625,2.90625 -2.90625,-2.90625 z"
       id="path3152"
       inkscape:export-filename="/home/david/UPC/LC2/Tasques complementaries/text2977.png"
       inkscape:export-xdpi="300"
       inkscape:export-ydpi="300" />
    <path
       id="path3154"
       d="m 540.15908,829.26173 -1,1 2.90625,2.90625 -2.90625,2.90625 1,1.03125 2.90625,-2.90625 2.90625,2.90625 1,-1.03125 -2.90625,-2.90625 2.90625,-2.90625 -1,-1 -2.90625,2.90625 -2.90625,-2.90625 z"
       style="fill:#ff0000;fill-opacity:1;stroke-width:2.5;stroke-miterlimit:4;stroke-dasharray:none"
       inkscape:export-filename="/home/david/UPC/LC2/Tasques complementaries/text2977.png"
       inkscape:export-xdpi="300"
       inkscape:export-ydpi="300" />
    <text
       id="text3156"
       y="734.86224"
       x="553.81635"
       style="font-size:10.08075809px;font-style:normal;font-weight:normal;fill:#000000;fill-opacity:1;stroke:none;font-family:Bitstream Vera Sans"
       xml:space="preserve"
       inkscape:export-filename="/home/david/UPC/LC2/Tasques complementaries/text2977.png"
       inkscape:export-xdpi="300"
       inkscape:export-ydpi="300"><tspan
         y="734.86224"
         x="553.81635"
         id="tspan3158"
         sodipodi:role="line">V</tspan></text>
    <text
       inkscape:export-ydpi="300"
       inkscape:export-xdpi="300"
       inkscape:export-filename="/home/david/UPC/LC2/Tasques complementaries/text2977.png"
       xml:space="preserve"
       style="font-size:10.08075809px;font-style:normal;font-weight:normal;fill:#000000;fill-opacity:1;stroke:none;font-family:Bitstream Vera Sans"
       x="553.81635"
       y="836.36224"
       id="text3160"><tspan
         sodipodi:role="line"
         id="tspan3162"
         x="553.81635"
         y="836.36224">-V</tspan></text>
    <path
       style="fill:#ff0000;fill-opacity:1;stroke-width:2.5;stroke-miterlimit:4;stroke-dasharray:none"
       d="m 583.95596,818.96422 0,-1.41422 -4.11006,0 0,-4.11006 -1.43631,-0.0221 0,4.11006 -4.11006,0 0.0221,1.43631 4.11006,0 0,4.11005 1.41421,0 0,-4.11005 4.11006,0 z"
       id="path3168"
       inkscape:export-filename="/home/david/UPC/LC2/Tasques complementaries/text2977.png"
       inkscape:export-xdpi="300"
       inkscape:export-ydpi="300" />
    <path
       inkscape:export-ydpi="300"
       inkscape:export-xdpi="300"
       inkscape:export-filename="/home/david/UPC/LC2/Tasques complementaries/text2977.png"
       style="fill:#ff0000;fill-opacity:1;stroke-width:2.5;stroke-miterlimit:4;stroke-dasharray:none"
       d="m 578.40958,750.94937 1.41421,0 0,-4.11006 4.11006,0 0.0221,-1.43631 -4.11005,0 0,-4.11006 -1.43631,0.0221 0,4.11006 -4.11006,0 0,1.41421 4.11006,0 0,4.11006 z"
       id="path3172" />
    <path
       inkscape:export-ydpi="300"
       inkscape:export-xdpi="300"
       inkscape:export-filename="/home/david/UPC/LC2/Tasques complementaries/text2977.png"
       id="path3174"
       d="m 506.28469,823.07426 1.41422,0 0,-4.11006 4.11005,0 0.0221,-1.43631 -4.11006,0 0,-4.11006 -1.43632,0.0221 0,4.11006 -4.11005,0 0,1.41421 4.11005,0 0,4.11006 z"
       style="fill:#ff0000;fill-opacity:1;stroke-width:2.5;stroke-miterlimit:4;stroke-dasharray:none" />
  </g>
</svg>
